<?xml version="1.0" encoding="utf-8"?>
<!-- Generator: Adobe Illustrator 23.0.1, SVG Export Plug-In . SVG Version: 6.00 Build 0)  -->
<svg version="1.1" id="Layer_1" xmlns="http://www.w3.org/2000/svg" xmlns:xlink="http://www.w3.org/1999/xlink" x="0px" y="0px"
	 viewBox="0 0 16383 16383" style="enable-background:new 0 0 16383 16383;" xml:space="preserve">
<style type="text/css">
	.st0{fill:#AA6F22;}
	.st1{fill:#444444;}
	.st2{fill:#FFFBB8;}
</style>
<polygon class="st0" points="4793.37,8425.66 4793.37,11774.25 5107.51,12088.39 8456.1,12088.34 8770.24,11774.2 8770.24,8425.66 
	8456.11,8111.52 5107.5,8111.52 "/>
<polygon class="st1" points="8404.12,8410.73 8042.79,8266.87 7584.71,8325.35 7099.32,8387.31 6898.58,8430.81 6783.89,8307.02 
	6590.78,8430.81 6202.69,8307.02 5727.61,8424.11 5212.38,8340.47 4984.88,8507.75 5132.08,8721.88 5004.95,8976.14 
	5112.01,9364.24 4891.2,9718.88 5152.16,10100.28 4891.2,10408.08 5199,10548.6 4984.88,11197.65 5045.1,11405.08 4984.88,11953.76 
	5252.53,11940.38 5526.87,11732.95 5894.89,11953.76 6343.2,11793.17 6871.82,12020.68 7313.44,11960.46 7541.09,11793.17 
	7801.9,11960.46 8357.28,12020.68 8317.13,11773.1 8363.97,11338.17 8103.01,11030.37 8317.13,10762.72 8457.65,10218.86 
	8243.53,9933 8584.78,9585.05 8176.61,9279.67 8323.82,9056.44 8584.78,8828.94 8430.88,8681.73 8584.78,8340.47 "/>
<polygon class="st2" points="8447.93,8366.92 8086.6,8223.05 7628.53,8281.53 7143.13,8343.5 6942.4,8386.99 6827.71,8263.2 
	6634.6,8386.99 6246.5,8263.2 5771.42,8380.3 5256.19,8296.66 5028.69,8463.94 5175.9,8678.06 5048.76,8932.33 5155.82,9320.42 
	4935.01,9675.06 5195.97,10056.46 4935.01,10364.26 5242.81,10504.78 5028.69,11153.83 5088.91,11361.26 5028.69,11909.95 
	5296.34,11896.57 5570.68,11689.14 5938.7,11909.95 6387.02,11749.36 6915.63,11976.86 7357.25,11916.64 7584.9,11749.36 
	7845.72,11916.64 8401.09,11976.86 8360.95,11729.29 8407.79,11294.35 8146.83,10986.55 8360.95,10718.9 8501.46,10175.04 
	8287.34,9889.18 8628.6,9541.24 8220.43,9235.85 8367.64,9012.63 8628.6,8785.12 8474.7,8637.91 8628.6,8296.66 "/>
</svg>
