<?xml version="1.0" encoding="utf-8"?>
<!-- Generator: Adobe Illustrator 23.0.1, SVG Export Plug-In . SVG Version: 6.00 Build 0)  -->
<svg version="1.1" id="Layer_1_xA0_Image_1_" xmlns="http://www.w3.org/2000/svg" xmlns:xlink="http://www.w3.org/1999/xlink"
	 x="0px" y="0px" viewBox="0 0 504 360" style="enable-background:new 0 0 504 360;" xml:space="preserve">
<style type="text/css">
	.st0{fill:#F7F6EB;}
	.st1{fill:#F5F3E5;}
	.st2{fill:#F2F0DD;}
	.st3{fill:#EFECD5;}
	.st4{fill:#EBE7C9;}
	.st5{fill:#E7E2BD;}
	.st6{fill:#E5E1B9;}
	.st7{fill:#E3DFB5;}
	.st8{fill:#E0DBAB;}
	.st9{fill:#DCD6A0;}
	.st10{fill:#CFC997;}
	.st11{fill:#D3CD9A;}
	.st12{fill:#CDC796;}
	.st13{fill:#C7C292;}
</style>
<g>
	<path class="st0" d="M343.19,166.29c-0.58,28.74-9.78,53.96-29.07,75.11c-18.19,19.96-40.87,31.92-67.65,35.27
		c-34.19,4.28-64.34-5.54-89.58-28.82c-24.36-22.46-36.09-50.85-35.18-83.98c0.84-30.5,12.48-56.6,34.65-77.63
		c22-20.87,48.58-30.95,78.76-30.13c28.91,0.79,54.26,11.38,74.92,31.8C331.83,109.46,342.38,136.01,343.19,166.29z M341.11,167.16
		c-0.36-29.2-10.13-54.39-30.01-75.32c-20.16-21.21-45.25-32.42-74.4-33.6c-29.73-1.2-55.99,8.35-77.92,28.51
		c-22.75,20.91-34.52,47.25-35.11,78.08c-0.56,29.2,9.26,54.93,29.27,76.3c20.49,21.88,46.07,33.46,76,34.33
		c31.81,0.93,59.27-10.17,81.49-32.96C330.82,221.58,340.7,196.06,341.11,167.16z"/>
	<path class="st1" d="M341.11,167.16c-0.4,28.9-10.29,54.43-30.69,75.36c-22.22,22.79-49.69,33.89-81.49,32.96
		c-29.92-0.88-55.51-12.46-76-34.33c-20.01-21.37-29.83-47.1-29.27-76.3c0.59-30.83,12.37-57.17,35.11-78.08
		c21.93-20.16,48.19-29.72,77.92-28.51c29.16,1.18,54.25,12.38,74.4,33.6C330.97,112.76,340.74,137.96,341.11,167.16z M231.89,59.35
		c-5.13-0.14-10.55,0.36-15.95,1.16c-5.8,0.86-11.48,2.21-17.04,4.02c-7.92,2.58-15.41,6.06-22.55,10.38
		c-7.1,4.29-13.52,9.42-19.49,15.13c-1.9,1.82-3.56,3.87-5.36,5.79c-2.94,3.15-5.52,6.59-7.95,10.13
		c-3.92,5.69-7.22,11.75-9.98,18.09c-1.87,4.28-3.46,8.66-4.7,13.16c-1.29,4.67-2.31,9.4-2.97,14.22
		c-0.63,4.54-1.06,9.08-1.12,13.65c-0.04,2.55,0.01,5.1,0.17,7.65c0.2,3.06,0.38,6.12,0.83,9.14c1.05,7.09,2.71,14.04,5.11,20.82
		c2.81,7.93,6.47,15.44,11.02,22.51c4.3,6.69,9.27,12.81,14.98,18.36c3.61,3.51,7.35,6.85,11.4,9.82
		c5.76,4.23,11.86,7.88,18.35,10.91c6.88,3.21,14.02,5.69,21.41,7.4c6.2,1.44,12.49,2.41,18.84,2.64
		c5.97,0.21,11.95,0.13,17.91-0.63c4.46-0.57,8.88-1.27,13.24-2.37c9.01-2.26,17.61-5.54,25.8-9.97
		c8.01-4.33,15.28-9.65,21.97-15.77c4.95-4.54,9.31-9.63,13.27-15.04c4.16-5.67,7.69-11.72,10.67-18.11
		c3.87-8.31,6.57-16.99,8.42-25.95c1.15-5.54,1.56-11.16,1.84-16.79c0.19-3.86-0.12-7.72-0.41-11.58c-0.32-4.17-0.92-8.28-1.7-12.38
		c-1.68-8.82-4.56-17.24-8.37-25.35c-2.71-5.76-6.01-11.17-9.69-16.36c-2.72-3.84-5.74-7.43-8.96-10.85
		c-1.2-1.28-2.64-2.35-3.77-3.66c-1.52-1.76-3.35-3.14-4.99-4.74c-1.94-1.88-4.29-3.22-6.51-4.73c-1.54-1.05-3.26-1.83-4.5-3.37
		c-1.04-1.29-2.87-1.52-4.23-2.55c-2.21-1.67-4.81-2.79-7.32-4.02c-6.61-3.24-13.48-5.74-20.62-7.54
		C250.14,60.37,241.26,59.17,231.89,59.35z"/>
	<path class="st2" d="M231.89,59.35c9.38-0.18,18.26,1.03,27.01,3.23c7.14,1.79,14.01,4.3,20.62,7.54c2.51,1.23,5.11,2.35,7.32,4.02
		c1.36,1.03,3.19,1.26,4.23,2.55c1.24,1.54,2.96,2.32,4.5,3.37c2.22,1.51,4.56,2.85,6.51,4.73c1.65,1.59,3.47,2.98,4.99,4.74
		c1.13,1.31,2.57,2.39,3.77,3.66c3.22,3.42,6.24,7.02,8.96,10.85c3.68,5.19,6.98,10.6,9.69,16.36c3.81,8.11,6.69,16.53,8.37,25.35
		c0.78,4.1,1.39,8.21,1.7,12.38c0.29,3.86,0.6,7.72,0.41,11.58c-0.28,5.63-0.69,11.25-1.84,16.79c-1.85,8.96-4.55,17.64-8.42,25.95
		c-2.97,6.39-6.51,12.44-10.67,18.11c-3.96,5.41-8.32,10.5-13.27,15.04c-6.69,6.13-13.96,11.44-21.97,15.77
		c-8.19,4.43-16.8,7.71-25.8,9.97c-4.35,1.09-8.78,1.8-13.24,2.37c-5.96,0.76-11.94,0.84-17.91,0.63
		c-6.35-0.23-12.64-1.2-18.84-2.64c-7.4-1.71-14.53-4.19-21.41-7.4c-6.48-3.02-12.59-6.68-18.35-10.91
		c-4.05-2.97-7.79-6.31-11.4-9.82c-5.71-5.56-10.68-11.68-14.98-18.36c-4.55-7.08-8.21-14.58-11.02-22.51
		c-2.4-6.77-4.06-13.73-5.11-20.82c-0.45-3.02-0.63-6.08-0.83-9.14c-0.17-2.56-0.21-5.1-0.17-7.65c0.06-4.57,0.5-9.11,1.12-13.65
		c0.66-4.82,1.69-9.55,2.97-14.22c1.24-4.5,2.84-8.88,4.7-13.16c2.76-6.34,6.06-12.4,9.98-18.09c2.44-3.54,5.01-6.98,7.95-10.13
		c1.79-1.92,3.46-3.98,5.36-5.79c5.97-5.71,12.39-10.84,19.49-15.13c7.14-4.31,14.64-7.8,22.55-10.38
		c5.56-1.81,11.24-3.16,17.04-4.02C221.34,59.71,226.75,59.2,231.89,59.35z M338.57,174.15c0.07-36.39-11.29-63.26-31.92-83.39
		c-19.89-19.4-44.08-29.5-71.83-30.12c-29.12-0.65-54.65,9.1-75.77,29.21c-21.9,20.85-32.92,46.84-32.98,76.98
		c-0.05,28.26,9.79,53.1,29.45,73.53c20.92,21.73,46.87,32.73,76.98,32.71c29.52-0.01,55.09-10.74,75.78-31.81
		C328.4,220.76,338.21,195.71,338.57,174.15z"/>
	<path class="st3" d="M338.57,174.15c-0.36,21.56-10.16,46.61-30.29,67.1c-20.69,21.07-46.26,31.8-75.78,31.81
		c-30.11,0.01-56.06-10.98-76.98-32.71c-19.66-20.43-29.5-45.27-29.45-73.53c0.05-30.15,11.08-56.14,32.98-76.98
		c21.12-20.1,46.65-29.86,75.77-29.21c27.75,0.62,51.94,10.72,71.83,30.12C327.27,110.88,338.64,137.76,338.57,174.15z
		 M232.86,271.27c4.67,0.1,10.09-0.35,15.49-1.18c5.2-0.79,10.31-1.94,15.32-3.51c7.76-2.42,15.13-5.73,22.13-9.85
		c6.48-3.81,12.43-8.34,17.93-13.43c3.31-3.06,6.33-6.4,9.23-9.87c4.6-5.5,8.49-11.45,11.86-17.75c3.07-5.75,5.53-11.75,7.46-17.99
		c2.65-8.6,4.13-17.4,4.56-26.35c0.26-5.41,0.02-10.83-0.63-16.23c-0.59-4.9-1.47-9.72-2.65-14.51
		c-2.36-9.59-6.25-18.56-11.06-27.12c-3.86-6.86-8.27-13.37-14.28-18.64c-2.05-1.8-3.74-4.02-5.65-5.96
		c-3.12-3.17-6.82-5.72-10.49-8.25c-4.93-3.41-10.07-6.46-15.57-8.87c-5.9-2.58-11.81-5.09-18.22-6.18
		c-2.46-0.42-4.87-1.14-7.34-1.56c-4.7-0.81-9.42-1.39-14.2-1.57c-2.22-0.08-4.42-0.04-6.63,0.02c-3.06,0.09-6.11-0.07-9.17,0.22
		c-1.24,0.12-2.41,0.59-3.6,0.69c-2.84,0.24-5.65,0.61-8.42,1.26c-4.11,0.96-8.15,2.18-12.13,3.56c-5.86,2.02-11.34,4.84-16.72,7.87
		c-5.85,3.29-11.18,7.32-16.35,11.58c-3.03,2.49-5.47,5.56-8.36,8.19c-2,1.82-3.57,4.06-5.27,6.16
		c-4.23,5.23-7.82,10.87-10.89,16.83c-3.25,6.28-5.93,12.82-7.68,19.68c-1.35,5.29-3.13,10.52-2.72,16.11
		c0.01,0.19-0.01,0.41-0.07,0.59c-0.54,1.53-0.56,3.16-0.58,4.72c-0.05,3.28-0.31,6.55-0.12,9.84c0.23,4.09,0.41,8.16,0.98,12.23
		c0.52,3.73,1.47,7.37,2.01,11.09c0.27,1.87,0.95,3.7,1.54,5.51c2.27,7.04,5.15,13.79,8.95,20.17c3.92,6.6,8.28,12.87,13.48,18.5
		c3.46,3.75,7.15,7.28,11.13,10.52c5.62,4.57,11.6,8.57,18.03,11.88c5.07,2.61,10.31,4.82,15.76,6.56
		C210.38,269.56,221.06,271.4,232.86,271.27z"/>
	<path class="st4" d="M232.86,271.27c-11.8,0.14-22.48-1.71-32.95-5.05c-5.45-1.74-10.69-3.95-15.76-6.56
		c-6.43-3.31-12.41-7.31-18.03-11.88c-3.98-3.24-7.67-6.77-11.13-10.52c-5.2-5.63-9.55-11.9-13.48-18.5
		c-3.8-6.38-6.68-13.13-8.95-20.17c-0.59-1.82-1.27-3.64-1.54-5.51c-0.55-3.72-1.49-7.36-2.01-11.09
		c-0.57-4.07-0.75-8.14-0.98-12.23c-0.19-3.3,0.08-6.57,0.12-9.84c0.02-1.55,0.05-3.19,0.58-4.72c0.06-0.18,0.08-0.4,0.07-0.59
		c-0.41-5.59,1.37-10.83,2.72-16.11c1.75-6.86,4.44-13.4,7.68-19.68c3.08-5.95,6.67-11.6,10.89-16.83c1.7-2.1,3.28-4.34,5.27-6.16
		c2.89-2.63,5.34-5.7,8.36-8.19c5.17-4.26,10.5-8.28,16.35-11.58c5.38-3.03,10.86-5.85,16.72-7.87c3.99-1.38,8.02-2.6,12.13-3.56
		c2.77-0.65,5.58-1.02,8.42-1.26c1.19-0.1,2.36-0.58,3.6-0.69c3.06-0.28,6.11-0.13,9.17-0.22c2.21-0.06,4.41-0.1,6.63-0.02
		c4.78,0.18,9.49,0.76,14.2,1.57c2.47,0.43,4.88,1.14,7.34,1.56c6.41,1.09,12.32,3.6,18.22,6.18c5.5,2.41,10.64,5.46,15.57,8.87
		c3.67,2.53,7.36,5.09,10.49,8.25c1.91,1.94,3.6,4.16,5.65,5.96c6.01,5.27,10.42,11.78,14.28,18.64
		c4.81,8.56,8.71,17.53,11.06,27.12c1.18,4.79,2.06,9.61,2.65,14.51c0.65,5.4,0.88,10.82,0.63,16.23
		c-0.43,8.96-1.91,17.76-4.56,26.35c-1.93,6.24-4.38,12.24-7.46,17.99c-3.37,6.3-7.27,12.25-11.86,17.75
		c-2.9,3.47-5.93,6.81-9.23,9.87c-5.51,5.09-11.45,9.62-17.93,13.43c-7.01,4.12-14.38,7.43-22.13,9.85
		c-5.01,1.57-10.12,2.72-15.32,3.51C242.95,270.92,237.53,271.37,232.86,271.27z M231.96,269.61c2.52-0.13,4.83-0.04,7.15-0.21
		c2.74-0.2,5.47-0.43,8.18-0.84c6.82-1.01,13.49-2.66,19.98-5c7.54-2.72,14.68-6.25,21.37-10.64c7.15-4.7,13.68-10.13,19.44-16.5
		c3.21-3.56,6.21-7.26,8.94-11.18c3.23-4.65,5.98-9.59,8.39-14.72c2.58-5.5,4.61-11.19,6.23-17.05c1.98-7.2,2.94-14.56,3.31-21.98
		c0.23-4.66,0.34-9.37-0.28-14c-0.6-4.49-0.82-9.09-2.55-13.38c-0.86-2.14-0.61-4.52-1.37-6.71c-0.27-0.79-0.82-1.39-1.11-2.18
		c-1.87-5.06-3.28-10.29-5.84-15.1c-0.79-1.49-1.71-2.86-2.62-4.28c-2.3-3.59-4.54-7.21-6.99-10.7c-1.78-2.54-3.75-4.95-5.95-7.16
		c-3.05-3.06-5.73-6.47-9.24-9.11c-3.14-2.36-6.16-4.89-9.4-7.14c-2.94-2.04-6.02-3.86-9.1-5.67c-2.49-1.46-5.14-2.67-7.93-3.59
		c-3.75-1.24-7.19-3.29-11.17-4.02c-3.37-0.61-6.64-1.77-10-2.53c-5.25-1.18-10.61-1.54-15.96-1.76c-2.9-0.12-5.81-0.08-8.73,0.14
		c-3.84,0.3-7.67,0.61-11.48,1.23c-5.89,0.97-11.67,2.37-17.19,4.66c-0.84,0.35-1.78,0.18-2.55,0.5c-1.91,0.78-3.86,1.52-5.68,2.46
		c-2.47,1.27-4.88,2.64-7.39,3.88c-3.27,1.61-6.42,3.56-9.36,5.73c-4.02,2.95-7.85,6.17-11.64,9.41c-2.78,2.38-5.15,5.21-7.47,8.02
		c-2.8,3.4-5.29,7.06-7.85,10.65c-0.75,1.05-1.67,2.06-1.74,3.48c-0.01,0.24-0.23,0.57-0.45,0.68c-0.92,0.5-1.22,1.42-1.68,2.24
		c-1.35,2.4-2.57,4.86-3.68,7.37c-1.66,3.76-3.18,7.57-4.37,11.5c-1.26,4.15-2.28,8.35-3.05,12.63c-0.85,4.74-1.31,9.52-1.52,14.32
		c-0.14,3.18-0.11,6.37,0.14,9.57c0.25,3.29,0.54,6.57,1.01,9.83c0.82,5.68,2.19,11.24,3.96,16.69c2.23,6.85,5.27,13.35,8.9,19.57
		c3.94,6.73,8.58,12.94,13.89,18.63c3.62,3.88,7.59,7.4,11.8,10.64c9.99,7.69,20.96,13.47,33.04,17.15
		C212.06,268.14,222,269.64,231.96,269.61z"/>
	<path class="st5" d="M231.96,269.61c-9.96,0.03-19.9-1.47-29.64-4.44c-12.07-3.68-23.05-9.46-33.04-17.15
		c-4.21-3.24-8.18-6.76-11.8-10.64c-5.31-5.69-9.96-11.9-13.89-18.63c-3.64-6.22-6.67-12.72-8.9-19.57
		c-1.77-5.45-3.14-11.01-3.96-16.69c-0.47-3.26-0.76-6.54-1.01-9.83c-0.24-3.2-0.28-6.39-0.14-9.57c0.21-4.79,0.67-9.57,1.52-14.32
		c0.77-4.27,1.79-8.48,3.05-12.63c1.19-3.93,2.71-7.74,4.37-11.5c1.11-2.52,2.33-4.98,3.68-7.37c0.46-0.82,0.76-1.75,1.68-2.24
		c0.22-0.12,0.44-0.44,0.45-0.68c0.07-1.42,0.99-2.43,1.74-3.48c2.57-3.59,5.05-7.25,7.85-10.65c2.32-2.81,4.68-5.64,7.47-8.02
		c3.79-3.24,7.62-6.46,11.64-9.41c2.94-2.16,6.09-4.12,9.36-5.73c2.5-1.23,4.91-2.61,7.39-3.88c1.83-0.94,3.77-1.68,5.68-2.46
		c0.78-0.32,1.71-0.15,2.55-0.5c5.53-2.29,11.3-3.69,17.19-4.66c3.81-0.63,7.64-0.94,11.48-1.23c2.92-0.22,5.83-0.27,8.73-0.14
		c5.35,0.23,10.71,0.59,15.96,1.76c3.35,0.75,6.62,1.91,10,2.53c3.98,0.72,7.42,2.77,11.17,4.02c2.79,0.92,5.43,2.13,7.93,3.59
		c3.08,1.81,6.16,3.63,9.1,5.67c3.24,2.24,6.26,4.77,9.4,7.14c3.51,2.64,6.19,6.05,9.24,9.11c2.2,2.2,4.16,4.62,5.95,7.16
		c2.45,3.48,4.69,7.11,6.99,10.7c0.9,1.41,1.82,2.78,2.62,4.28c2.55,4.81,3.96,10.04,5.84,15.1c0.29,0.79,0.83,1.39,1.11,2.18
		c0.75,2.19,0.51,4.57,1.37,6.71c1.72,4.29,1.95,8.89,2.55,13.38c0.62,4.62,0.51,9.34,0.28,14c-0.37,7.43-1.32,14.79-3.31,21.98
		c-1.61,5.85-3.64,11.55-6.23,17.05c-2.41,5.13-5.16,10.06-8.39,14.72c-2.72,3.93-5.73,7.63-8.94,11.18
		c-5.76,6.38-12.29,11.8-19.44,16.5c-6.69,4.4-13.83,7.93-21.37,10.64c-6.49,2.34-13.17,3.99-19.98,5c-2.7,0.4-5.44,0.63-8.18,0.84
		C236.79,269.57,234.49,269.48,231.96,269.61z M333.91,167.7c-0.39-29.52-10.59-54.05-31.02-73.94
		c-18.36-17.88-40.76-27.36-66.36-28.33c-28.72-1.09-53.89,8.29-74.63,28.27c-20.46,19.71-30.87,44.19-31.05,72.54
		c-0.18,27.57,9.45,51.71,28.75,71.48c19.09,19.56,42.66,29.87,69.98,30.58c27.41,0.71,51.59-8.27,71.73-26.95
		C322.91,221.3,333.4,196.17,333.91,167.7z"/>
	<path class="st6" d="M333.91,167.7c-0.51,28.47-11.01,53.6-32.6,73.64c-20.13,18.68-44.32,27.66-71.73,26.95
		c-27.32-0.71-50.89-11.02-69.98-30.58c-19.3-19.77-28.92-43.91-28.75-71.48c0.18-28.35,10.59-52.83,31.05-72.54
		c20.74-19.97,45.91-29.36,74.63-28.27c25.6,0.97,48,10.46,66.36,28.33C323.32,113.65,333.52,138.18,333.91,167.7z M333.19,169.08
		c-0.23-28.4-8.99-51.43-26.84-70.73c-18.65-20.16-42-30.99-69.37-32.19c-30.04-1.32-56.01,8.92-77.03,30.46
		c-18.54,19-28.05,42.2-28.39,68.71c-0.36,27.87,9.25,52.18,28.83,72.13c18.74,19.09,41.77,29.24,68.48,30.1
		c27.64,0.89,52.01-8.08,72.26-27.01C322.32,220.75,332.66,195.96,333.19,169.08z"/>
	<path class="st7" d="M333.19,169.08c-0.53,26.88-10.86,51.66-32.06,71.47c-20.25,18.93-44.62,27.9-72.26,27.01
		c-26.71-0.86-49.74-11.01-68.48-30.1c-19.59-19.95-29.19-44.26-28.83-72.13c0.34-26.52,9.85-49.72,28.39-68.71
		c21.02-21.54,46.99-31.77,77.03-30.46c27.37,1.2,50.72,12.04,69.37,32.19C324.2,117.65,332.96,140.69,333.19,169.08z
		 M232.73,266.45c4.48,0.16,9.32-0.26,14.13-0.97c4.29-0.63,8.54-1.46,12.69-2.72c3.1-0.95,6.19-1.96,9.22-3.09
		c2.47-0.92,4.96-1.87,7.25-3.16c2.39-1.35,4.86-2.56,7.21-4c3.6-2.2,7.06-4.59,10.42-7.15c1.82-1.38,3.51-2.9,5.27-4.36
		c1.09-0.91,2.06-1.95,3.17-2.87c1.46-1.19,2.58-2.79,3.86-4.19c0.34-0.38,0.85-0.63,1.13-1.04c0.95-1.44,2.18-2.65,3.22-4.01
		c1.13-1.48,2.25-2.96,3.36-4.46c1-1.35,1.83-2.82,2.79-4.19c0.74-1.06,1.18-2.28,2-3.25c0.77-0.9,0.8-2.19,1.56-3
		c1.29-1.39,1.89-3.14,2.57-4.77c0.68-1.65,1.55-3.22,2.1-4.92c0.54-1.67,1.56-3.14,1.74-4.96c0.09-0.87,0.45-1.75,0.94-2.55
		c0.31-0.49,0.61-1.13,0.55-1.66c-0.09-0.78,0.24-1.41,0.43-2.07c0.57-2,1.1-4,1.45-6.06c0.25-1.48,0.72-2.93,0.95-4.41
		c0.19-1.25,0.46-2.53,0.44-3.76c-0.02-1.28,0.14-2.6,0.35-3.77c0.24-1.34,0.24-2.65,0.33-3.97c0.09-1.37,0.23-2.75,0.21-4.13
		c-0.02-2.51-0.14-5.02-0.22-7.53c0-0.08-0.02-0.16-0.05-0.23c-0.63-1.32-0.35-2.78-0.59-4.15c-0.15-0.82-0.05-1.78-0.31-2.44
		c-0.45-1.16-0.4-2.35-0.6-3.5c-0.33-1.85-0.76-3.68-1.09-5.52c-0.3-1.69-0.91-3.31-1.36-4.96c-0.35-1.3-0.26-2.82-1.13-3.89
		c-0.68-0.84-0.76-1.82-1.03-2.71c-0.75-2.47-1.83-4.81-3-7.05c-1.13-2.16-2.06-4.43-3.3-6.56c-1.4-2.42-2.96-4.73-4.35-7.16
		c-1.17-2.04-2.66-3.91-4.2-5.73c-1.66-1.95-3.08-4.1-4.99-5.83c-0.35-0.32-0.79-0.63-0.98-1.05c-0.83-1.79-2.52-2.83-3.87-4.06
		c-1.27-1.14-2.41-2.48-3.89-3.45c-1.68-1.11-3.13-2.55-4.74-3.77c-2.15-1.62-4.4-3.09-6.64-4.57c-2.51-1.66-5.24-2.92-7.73-4.61
		c-0.94-0.64-2.01-1.26-3.1-1.48c-1.4-0.29-2.47-1.17-3.76-1.65c-2.1-0.78-4.2-1.61-6.28-2.46c-1.74-0.71-3.72-0.81-5.4-1.55
		c-1.63-0.71-3.35-0.62-4.95-1.22c-1.23-0.46-2.56-0.67-3.89-0.81c-1.17-0.12-2.31-0.63-3.47-0.63c-1.56,0-3.04-0.5-4.61-0.5
		c-1.9-0.01-3.8-0.66-5.71-0.6c-4.08,0.14-8.17-0.42-12.27,0.35c-1.24,0.23-2.77,0.11-4.02,0.31c-2.06,0.33-4.17,0.47-6.22,0.97
		c-3.01,0.73-6.1,1.16-9.07,2.02c-2.02,0.59-4.02,1.34-6.04,1.95c-2.8,0.85-5.5,1.9-8.13,3.11c-5.48,2.51-10.72,5.49-15.69,8.91
		c-3.68,2.53-7.19,5.29-10.45,8.32c-4.3,3.99-8.26,8.31-11.83,12.98c-6.57,8.6-11.61,18.02-15.1,28.24
		c-1.94,5.69-3.35,11.52-4.21,17.49c-0.58,4.02-1,8.04-1.11,12.09c-0.17,6.02,0.23,12,1.14,17.97c0.75,4.89,1.82,9.69,3.29,14.39
		c1.68,5.37,3.74,10.58,6.31,15.61c2.09,4.09,4.39,8.04,6.98,11.82c3.9,5.68,8.43,10.85,13.43,15.58c2.6,2.46,5.34,4.77,8.21,6.92
		c5.94,4.48,12.28,8.28,19.07,11.34c6.96,3.15,14.17,5.47,21.68,6.94C219.25,265.85,225.75,266.57,232.73,266.45z"/>
	<path class="st8" d="M232.73,266.45c-6.97,0.12-13.47-0.6-19.94-1.86c-7.5-1.46-14.71-3.79-21.68-6.94
		c-6.79-3.07-13.13-6.87-19.07-11.34c-2.86-2.16-5.61-4.47-8.21-6.92c-5-4.73-9.53-9.9-13.43-15.58c-2.59-3.77-4.89-7.73-6.98-11.82
		c-2.57-5.02-4.63-10.24-6.31-15.61c-1.47-4.71-2.55-9.51-3.29-14.39c-0.91-5.96-1.31-11.95-1.14-17.97
		c0.11-4.05,0.54-8.07,1.11-12.09c0.85-5.97,2.26-11.8,4.21-17.49c3.49-10.23,8.53-19.65,15.1-28.24
		c3.57-4.67,7.54-8.99,11.83-12.98c3.26-3.03,6.77-5.79,10.45-8.32c4.97-3.43,10.21-6.4,15.69-8.91c2.63-1.21,5.33-2.26,8.13-3.11
		c2.01-0.61,4.02-1.36,6.04-1.95c2.97-0.86,6.06-1.28,9.07-2.02c2.05-0.5,4.16-0.64,6.22-0.97c1.25-0.2,2.78-0.08,4.02-0.31
		c4.1-0.76,8.18-0.2,12.27-0.35c1.91-0.07,3.82,0.59,5.71,0.6c1.58,0,3.05,0.5,4.61,0.5c1.16,0,2.3,0.5,3.47,0.63
		c1.33,0.14,2.66,0.36,3.89,0.81c1.61,0.59,3.33,0.51,4.95,1.22c1.69,0.73,3.67,0.84,5.4,1.55c2.08,0.85,4.18,1.68,6.28,2.46
		c1.29,0.48,2.36,1.36,3.76,1.65c1.09,0.23,2.16,0.84,3.1,1.48c2.49,1.69,5.22,2.95,7.73,4.61c2.25,1.48,4.5,2.95,6.64,4.57
		c1.61,1.22,3.06,2.66,4.74,3.77c1.48,0.97,2.62,2.3,3.89,3.45c1.35,1.22,3.04,2.26,3.87,4.06c0.19,0.41,0.62,0.72,0.98,1.05
		c1.91,1.73,3.33,3.88,4.99,5.83c1.54,1.81,3.04,3.68,4.2,5.73c1.39,2.42,2.95,4.74,4.35,7.16c1.23,2.13,2.17,4.4,3.3,6.56
		c1.17,2.23,2.25,4.58,3,7.05c0.27,0.89,0.36,1.87,1.03,2.71c0.86,1.07,0.77,2.59,1.13,3.89c0.45,1.65,1.06,3.27,1.36,4.96
		c0.33,1.85,0.75,3.67,1.09,5.52c0.21,1.15,0.15,2.34,0.6,3.5c0.26,0.67,0.16,1.63,0.31,2.44c0.25,1.38-0.04,2.83,0.59,4.15
		c0.03,0.07,0.05,0.15,0.05,0.23c0.08,2.51,0.2,5.02,0.22,7.53c0.01,1.37-0.12,2.75-0.21,4.13c-0.09,1.32-0.09,2.63-0.33,3.97
		c-0.21,1.17-0.37,2.49-0.35,3.77c0.02,1.23-0.25,2.51-0.44,3.76c-0.23,1.48-0.69,2.93-0.95,4.41c-0.35,2.06-0.88,4.06-1.45,6.06
		c-0.19,0.66-0.53,1.29-0.43,2.07c0.06,0.53-0.25,1.17-0.55,1.66c-0.5,0.8-0.85,1.68-0.94,2.55c-0.19,1.82-1.21,3.29-1.74,4.96
		c-0.55,1.7-1.42,3.28-2.1,4.92c-0.68,1.64-1.28,3.39-2.57,4.77c-0.76,0.81-0.8,2.1-1.56,3c-0.82,0.97-1.26,2.19-2,3.25
		c-0.96,1.37-1.79,2.84-2.79,4.19c-1.1,1.5-2.23,2.98-3.36,4.46c-1.04,1.36-2.27,2.57-3.22,4.01c-0.27,0.41-0.78,0.66-1.13,1.04
		c-1.29,1.4-2.41,3-3.86,4.19c-1.11,0.91-2.08,1.96-3.17,2.87c-1.75,1.45-3.45,2.97-5.27,4.36c-3.36,2.56-6.82,4.95-10.42,7.15
		c-2.35,1.43-4.82,2.65-7.21,4c-2.29,1.29-4.78,2.24-7.25,3.16c-3.04,1.13-6.12,2.14-9.22,3.09c-4.15,1.27-8.4,2.09-12.69,2.72
		C242.04,266.19,237.21,266.62,232.73,266.45z M329.42,155.24c-0.18-14.03-8.75-36.52-26.42-55.17
		c-18.07-19.08-40.54-29.3-66.78-30.32c-28.7-1.12-53.47,8.77-73.57,29.23c-17.96,18.29-27.11,40.7-27.5,66.31
		c-0.39,26,8.32,48.87,26.13,67.91c18.41,19.69,41.39,30.1,68.26,30.78C286.08,265.4,329.64,220.29,329.42,155.24z"/>
	<path class="st9" d="M329.42,155.24c0.22,65.05-43.34,110.16-99.88,108.73c-26.87-0.68-49.85-11.09-68.26-30.78
		c-17.81-19.04-26.52-41.91-26.13-67.91c0.39-25.6,9.54-48.02,27.5-66.31c20.1-20.47,44.87-30.35,73.57-29.23
		c26.25,1.02,48.71,11.24,66.78,30.32C320.67,118.72,329.24,141.21,329.42,155.24z M268.56,158.52c2.22,0.04,4.38-0.26,6.52-0.71
		c7.04-1.47,12.61-5.52,17.82-10.2c2.87-2.58,5.16-5.65,7-9.03c1.89-3.46,3.35-7.11,3.13-11.13c-0.25-4.59-1.94-8.77-4.37-12.62
		c-2.4-3.81-5.33-7.23-8.22-10.68c-2.72-3.24-5.91-5.79-9.76-7.52c-1.53-0.69-3.08-1.32-4.62-1.96c-2.91-1.21-5.18-3.42-7.83-5.04
		c-3.45-2.11-7.16-3.51-11.18-3.87c-2.98-0.27-5.95,0.09-8.86,0.93c-4.47,1.3-8.22,3.73-11.07,7.37c-3.36,4.3-3.59,9.28-1.95,14.18
		c2.06,6.12,2.93,12.36,3.07,18.74c0.09,4.02,0.28,8.01,0.95,11.99c1.2,7.12,4.81,12.46,11.3,15.73
		C256.18,157.59,262.4,157.94,268.56,158.52z M223.61,240.06c4.28-0.05,8.91,0.18,13.51-0.47c3.13-0.44,6.18-1.06,8.98-2.61
		c4.93-2.73,6.69-8.15,5.07-13.25c-0.81-2.54-2.24-4.74-4.1-6.67c-1.97-2.05-4.21-3.78-6.29-5.7c-2.02-1.85-4.1-3.65-6.15-5.48
		c-2.67-2.38-5.48-4.6-7.81-7.36c-1.95-2.3-3.54-4.76-4.67-7.58c-1.54-3.87-2.52-7.87-3.06-11.99c-0.44-3.34-0.81-6.69-1.23-10.04
		c-0.35-2.79-0.69-5.59-1.11-8.37c-0.52-3.47-1.51-6.82-2.56-10.16c-1.3-4.12-3.34-7.8-6.71-10.56c-2.11-1.73-4.13-3.53-5.78-5.67
		c-2.84-3.69-6.6-5.94-10.94-7.35c-3.14-1.02-6.27-2.05-9.26-3.47c-1.82-0.86-3.57-1.87-5.66-2.08c-4.93-0.5-8.55,1.23-10.42,6.23
		c-0.95,2.54-1.48,5.16-1.95,7.84c-1,5.72-3.21,11.07-5.57,16.35c-1.66,3.69-2.71,7.59-2.87,11.63c-0.17,4.32-0.15,8.65-0.26,12.98
		c-0.12,4.59,0.16,9.19-0.3,13.76c-0.34,3.37-0.2,6.67,0.43,9.97c0.75,3.95,2.2,7.65,4.24,11.1c2.27,3.84,4.72,7.5,8.04,10.6
		c3.36,3.14,7.29,5.11,11.53,6.58c6.3,2.18,12.56,4.44,18.44,7.62c1.22,0.66,2.52,1.22,3.81,1.72c4.51,1.76,9.25,2.26,14.04,2.39
		C217.75,240.12,220.51,240.06,223.61,240.06z M288.13,203.09c1.55-0.02,3.09-0.04,4.65-0.19c3.48-0.35,6.84-0.97,9.87-2.83
		c2.53-1.55,4.27-3.76,4.92-6.63c1.52-6.7-1.8-13.31-8.04-16.21c-3.1-1.44-6.2-1.49-9.06,0.54c-1.5,1.06-2.66,2.52-3.57,4.13
		c-1,1.77-2.63,2.58-4.55,2.97c-1.4,0.28-2.83,0.46-4.17,0.97c-4.68,1.79-6.27,5.97-5,9.99c0.79,2.48,2.61,4.16,4.88,5.33
		C281.21,202.77,284.61,203.28,288.13,203.09z M277.38,229.62c0.17-3.31-2.84-5.64-6-5.6c-3.87,0.05-6.38,2.41-6.45,5.76
		c-0.06,2.94,3.1,6.01,6.07,5.94C274.24,235.64,277.44,233.18,277.38,229.62z"/>
	<path class="st10" d="M268.56,158.52c-6.16-0.58-12.38-0.93-18.07-3.79c-6.5-3.27-10.1-8.61-11.3-15.73
		c-0.67-3.98-0.86-7.97-0.95-11.99c-0.14-6.38-1-12.62-3.07-18.74c-1.65-4.89-1.42-9.88,1.95-14.18c2.85-3.64,6.6-6.07,11.07-7.37
		c2.9-0.85,5.87-1.2,8.86-0.93c4.02,0.36,7.73,1.76,11.18,3.87c2.65,1.62,4.92,3.82,7.83,5.04c1.54,0.64,3.1,1.27,4.62,1.96
		c3.85,1.73,7.04,4.28,9.76,7.52c2.89,3.45,5.82,6.87,8.22,10.68c2.43,3.85,4.11,8.03,4.37,12.62c0.22,4.03-1.24,7.67-3.13,11.13
		c-1.85,3.38-4.13,6.44-7,9.03c-5.2,4.68-10.78,8.73-17.82,10.2C272.94,158.26,270.77,158.56,268.56,158.52z"/>
	<path class="st11" d="M223.61,240.06c-3.1,0-5.86,0.06-8.62-0.01c-4.79-0.14-9.53-0.63-14.04-2.39c-1.3-0.51-2.59-1.06-3.81-1.72
		c-5.89-3.18-12.15-5.44-18.44-7.62c-4.24-1.47-8.17-3.44-11.53-6.58c-3.32-3.1-5.77-6.76-8.04-10.6c-2.04-3.45-3.49-7.16-4.24-11.1
		c-0.63-3.3-0.76-6.6-0.43-9.97c0.46-4.57,0.19-9.17,0.3-13.76c0.11-4.33,0.08-8.66,0.26-12.98c0.16-4.04,1.21-7.93,2.87-11.63
		c2.37-5.28,4.57-10.63,5.57-16.35c0.47-2.68,1-5.3,1.95-7.84c1.87-5,5.49-6.74,10.42-6.23c2.09,0.21,3.84,1.22,5.66,2.08
		c2.99,1.41,6.12,2.45,9.26,3.47c4.34,1.41,8.1,3.66,10.94,7.35c1.65,2.15,3.67,3.95,5.78,5.67c3.37,2.76,5.41,6.44,6.71,10.56
		c1.05,3.34,2.04,6.69,2.56,10.16c0.42,2.78,0.76,5.58,1.11,8.37c0.42,3.34,0.79,6.7,1.23,10.04c0.55,4.11,1.52,8.11,3.06,11.99
		c1.12,2.81,2.71,5.28,4.67,7.58c2.34,2.75,5.14,4.97,7.81,7.36c2.05,1.83,4.13,3.63,6.15,5.48c2.08,1.91,4.33,3.65,6.29,5.7
		c1.85,1.93,3.29,4.12,4.1,6.67c1.62,5.1-0.14,10.52-5.07,13.25c-2.8,1.55-5.85,2.17-8.98,2.61
		C232.52,240.24,227.89,240.01,223.61,240.06z M157.36,192.43c-0.3,4.68,0.57,9.15,2.48,13.39c2.45,5.42,5.67,10.32,10.15,14.32
		c1.73,1.55,3.66,2.82,5.78,3.78c2.99,1.34,6.15,2.2,9.28,3.13c4.9,1.45,9.66,3.26,14.33,5.32c4.41,1.95,9.07,2.95,13.88,3.13
		c4.15,0.16,8.29-0.07,12.45,0.18c2.8,0.17,5.61,0.48,8.46,0.13c2.94-0.36,5.85-0.78,8.59-1.87c2.48-0.99,4.37-2.59,4.7-5.51
		c0.31-2.76-0.64-5.17-2.31-7.18c-2.54-3.06-5.32-5.93-8.05-8.84c-4.04-4.32-8.84-7.84-12.88-12.16c-2.68-2.87-4.74-6.15-6.1-9.79
		c-2.14-5.73-2.85-11.8-3.61-17.83c-0.42-3.31-0.59-6.64-1.02-9.95c-0.55-4.19-1.64-8.27-3.07-12.25c-1.09-3.02-2.64-5.74-5.29-7.64
		c-2.33-1.67-4.37-3.56-5.9-5.99c-1.94-3.08-4.86-4.88-8.21-6.03c-2.86-0.99-5.77-1.86-8.54-3.1c-2.18-0.98-4.27-2.2-6.64-2.68
		c-2.25-0.45-5.21,0.24-6.52,2.84c-0.88,1.76-1.62,3.56-2.1,5.46c-1.23,4.82-2.41,9.67-4.23,14.3c-2.52,6.43-4.04,13.05-4.63,19.9
		c-0.34,3.96-0.62,7.93-0.71,11.91C157.56,183.74,157.6,188.09,157.36,192.43z"/>
	<path class="st10" d="M288.13,203.09c-3.52,0.19-6.92-0.32-10.08-1.94c-2.27-1.17-4.09-2.85-4.88-5.33c-1.27-4.02,0.32-8.2,5-9.99
		c1.35-0.51,2.77-0.69,4.17-0.97c1.91-0.39,3.54-1.19,4.55-2.97c0.92-1.62,2.08-3.07,3.57-4.13c2.86-2.04,5.96-1.99,9.06-0.54
		c6.24,2.91,9.56,9.52,8.04,16.21c-0.65,2.87-2.39,5.08-4.92,6.63c-3.03,1.86-6.39,2.48-9.87,2.83
		C291.22,203.05,289.68,203.07,288.13,203.09z"/>
	<path class="st10" d="M277.38,229.62c0.06,3.56-3.14,6.02-6.38,6.1c-2.98,0.07-6.13-3-6.07-5.94c0.07-3.35,2.59-5.72,6.45-5.76
		C274.54,223.98,277.55,226.31,277.38,229.62z"/>
	<path class="st12" d="M157.36,192.43c0.24-4.34,0.2-8.69,0.29-13.04c0.09-3.97,0.37-7.95,0.71-11.91
		c0.59-6.85,2.11-13.47,4.63-19.9c1.81-4.63,3-9.48,4.23-14.3c0.48-1.9,1.22-3.7,2.1-5.46c1.31-2.6,4.28-3.3,6.52-2.84
		c2.37,0.48,4.46,1.7,6.64,2.68c2.77,1.24,5.68,2.12,8.54,3.1c3.36,1.16,6.27,2.95,8.21,6.03c1.53,2.43,3.57,4.33,5.9,5.99
		c2.65,1.9,4.2,4.62,5.29,7.64c1.44,3.98,2.52,8.05,3.07,12.25c0.43,3.3,0.6,6.64,1.02,9.95c0.77,6.03,1.48,12.1,3.61,17.83
		c1.36,3.64,3.42,6.92,6.1,9.79c4.04,4.32,8.84,7.84,12.88,12.16c2.72,2.91,5.5,5.77,8.05,8.84c1.67,2.01,2.62,4.42,2.31,7.18
		c-0.33,2.93-2.22,4.52-4.7,5.51c-2.74,1.09-5.65,1.51-8.59,1.87c-2.85,0.35-5.66,0.04-8.46-0.13c-4.16-0.25-8.3-0.02-12.45-0.18
		c-4.82-0.18-9.47-1.18-13.88-3.13c-4.67-2.06-9.43-3.87-14.33-5.32c-3.13-0.92-6.29-1.78-9.28-3.13c-2.13-0.96-4.05-2.23-5.78-3.78
		c-4.48-3.99-7.7-8.9-10.15-14.32C157.93,201.59,157.05,197.11,157.36,192.43z M159.54,189.88c0,2.53-0.01,4.37,0,6.21
		c0.02,1.64,0.33,3.24,0.75,4.81c1.21,4.59,3.72,8.49,6.38,12.35c2.7,3.91,6.08,6.97,10.4,8.9c3.57,1.59,7.42,2.38,11.22,3.22
		c4.51,1,9.08,1.6,13.69,2.05c2.99,0.3,5.94,1,8.89,1.65c1.84,0.41,3.81,0.75,5.66,0.56c2.4-0.25,4.81-0.21,7.22-0.51
		c4.44-0.55,8.2-2.05,11.24-5.35c2.22-2.4,2.29-6.5,1.23-8.4c-1.87-3.33-4.69-5.81-7.58-8.21c-1.99-1.65-4.05-3.21-5.98-4.94
		c-2.46-2.21-5.15-4.12-7.55-6.43c-2.54-2.45-5.45-4.51-8.12-6.83c-3.7-3.22-7.28-6.59-10.65-10.17c-1.83-1.94-3.49-4.02-4.68-6.45
		c-1.98-4.06-3.51-8.27-4.68-12.64c-0.82-3.04,0.39-5.32,2.32-7.33c2.05-2.13,4.09-4.24,5.29-6.99c1.16-2.66,1.07-5.38-0.62-7.74
		c-1.54-2.15-3.88-3.26-6.5-3.69c-1.74-0.28-3.22-0.94-4.48-2.28c-1.6-1.71-3.55-2.96-5.86-3.55c-1.32-0.34-2.57-0.29-3.78,0.5
		c-2.16,1.41-3.17,3.61-4.12,5.84c-1.42,3.35-1.96,6.96-2.96,10.43c-1.38,4.81-1.88,9.77-2.1,14.7c-0.21,4.82-1.09,9.4-2.85,13.82
		c-0.92,2.3-1.29,4.7-1.5,7.08C159.55,183.86,159.34,187.22,159.54,189.88z"/>
	<path class="st13" d="M159.54,189.88c-0.2-2.67,0.01-6.02,0.3-9.35c0.21-2.38,0.59-4.77,1.5-7.08c1.76-4.42,2.64-9.01,2.85-13.82
		c0.22-4.93,0.72-9.89,2.1-14.7c1-3.47,1.54-7.08,2.96-10.43c0.95-2.23,1.96-4.43,4.12-5.84c1.21-0.79,2.46-0.84,3.78-0.5
		c2.31,0.59,4.26,1.84,5.86,3.55c1.25,1.34,2.74,2,4.48,2.28c2.62,0.43,4.96,1.53,6.5,3.69c1.69,2.36,1.77,5.08,0.62,7.74
		c-1.19,2.75-3.24,4.86-5.29,6.99c-1.93,2.01-3.14,4.28-2.32,7.33c1.17,4.37,2.7,8.58,4.68,12.64c1.19,2.43,2.85,4.51,4.68,6.45
		c3.37,3.58,6.94,6.94,10.65,10.17c2.67,2.32,5.58,4.38,8.12,6.83c2.39,2.3,5.09,4.22,7.55,6.43c1.92,1.72,3.99,3.29,5.98,4.94
		c2.89,2.4,5.7,4.88,7.58,8.21c1.07,1.9,0.99,6-1.23,8.4c-3.05,3.3-6.81,4.79-11.24,5.35c-2.41,0.3-4.82,0.26-7.22,0.51
		c-1.85,0.19-3.81-0.15-5.66-0.56c-2.95-0.66-5.9-1.36-8.89-1.65c-4.6-0.46-9.18-1.06-13.69-2.05c-3.8-0.84-7.65-1.62-11.22-3.22
		c-4.32-1.93-7.7-4.99-10.4-8.9c-2.66-3.86-5.17-7.77-6.38-12.35c-0.42-1.57-0.73-3.18-0.75-4.81
		C159.53,194.25,159.54,192.41,159.54,189.88z"/>
</g>
</svg>
