<?xml version="1.0" encoding="utf-8"?>
<!-- Generator: Adobe Illustrator 23.0.1, SVG Export Plug-In . SVG Version: 6.00 Build 0)  -->
<svg version="1.1" id="Layer_1" xmlns="http://www.w3.org/2000/svg" xmlns:xlink="http://www.w3.org/1999/xlink" x="0px" y="0px"
	 viewBox="0 0 16383 16383" style="enable-background:new 0 0 16383 16383;" xml:space="preserve">
<style type="text/css">
	.st0{fill:#FFFFFF;}
</style>
<g>
	<path d="M10243.14,12946.88c0-4700.58-253.83-8631.25-4568.97-8631.25l0,8631.26L10243.14,12946.88z"/>
	<g>
		<path class="st0" d="M7006.87,8087.42c86.44-15.04,210.2-23.39,328.07-23.39c182.7,0,300.57,28.4,383.08,91.89
			c66.79,50.12,104.12,126.97,104.12,213.86c0,148.7-110.01,247.27-249.49,287.37v5.01c102.15,30.08,163.05,110.27,194.48,227.23
			c43.22,157.04,74.65,265.65,102.15,309.09h-176.8c-21.61-31.74-51.07-128.65-88.4-268.99
			c-39.29-155.38-110.01-213.86-265.21-218.88h-161.09v487.87h-170.91V8087.42z M7177.78,8600.35h174.84
			c182.7,0,298.61-85.21,298.61-213.86c0-145.36-123.77-208.85-304.5-210.52c-82.51,0-141.44,6.69-168.95,13.37V8600.35z"/>
		<path class="st0" d="M8332.88,8196.02h-402.72v-123.64h980.28v123.64h-404.68v1002.46h-172.87V8196.02z"/>
	</g>
</g>
</svg>
