<?xml version="1.0" encoding="utf-8"?>
<!-- Generator: Adobe Illustrator 23.0.1, SVG Export Plug-In . SVG Version: 6.00 Build 0)  -->
<svg version="1.1" id="Layer_1" xmlns="http://www.w3.org/2000/svg" xmlns:xlink="http://www.w3.org/1999/xlink" x="0px" y="0px"
	 viewBox="0 0 16383 16383" style="enable-background:new 0 0 16383 16383;" xml:space="preserve">
<style type="text/css">
	.st0{fill:#FFFFFF;}
</style>
<g>
	<circle cx="8191.5" cy="8064.62" r="4264.62"/>
	<g>
		<path class="st0" d="M7122.93,7214.55h219.78V8732.8h727.55v184.41h-947.33V7214.55z"/>
		<path class="st0" d="M8284.96,8649.44c98.52,60.63,242.52,111.15,394.09,111.15c224.83,0,356.19-118.74,356.19-290.52
			c0-159.15-90.94-250.09-320.82-338.51c-277.88-98.52-449.67-242.51-449.67-482.5c0-265.25,219.78-462.3,550.71-462.3
			c174.31,0,300.61,40.42,376.4,83.36l-60.63,179.37c-55.58-30.32-169.26-80.83-323.35-80.83c-232.41,0-320.83,138.93-320.83,255.14
			c0,159.15,103.57,237.46,338.51,328.41c287.99,111.15,434.51,250.08,434.51,500.18c0,262.73-194.52,490.09-596.18,490.09
			c-164.21,0-343.56-48-434.5-108.62L8284.96,8649.44z"/>
	</g>
</g>
</svg>
