<?xml version="1.0" encoding="utf-8"?>
<!-- Generator: Adobe Illustrator 23.0.1, SVG Export Plug-In . SVG Version: 6.00 Build 0)  -->
<svg version="1.1" id="Layer_1" xmlns="http://www.w3.org/2000/svg" xmlns:xlink="http://www.w3.org/1999/xlink" x="0px" y="0px"
	 viewBox="0 0 16383 16383" style="enable-background:new 0 0 16383 16383;" xml:space="preserve">
<style type="text/css">
	.st0{fill:#FFFFFF;}
</style>
<g>
	<path d="M4305.7,6524.12c0,1981.98,478.41,3639.34,8611.39,3639.34V6524.12L4305.7,6524.12z"/>
	<path class="st0" d="M7693.04,7652.72h178.14v1230.62h589.71v149.47h-767.85V7652.72z"/>
	<path class="st0" d="M8659.5,7671.15c77.81-16.38,200.67-28.67,325.57-28.67c178.14,0,292.81,30.71,378.81,100.33
		c71.67,53.24,114.67,135.15,114.67,243.67c0,133.1-88.05,249.81-233.43,303.05v4.09c131.05,32.76,284.62,141.29,284.62,346.05
		c0,118.76-47.09,208.85-116.71,276.43c-96.24,88.04-251.86,129-477.09,129c-122.86,0-217.05-8.19-276.43-16.39V7671.15z
		 M8837.64,8236.29h161.76c188.38,0,298.95-98.28,298.95-231.38c0-161.76-122.86-225.24-303.05-225.24
		c-81.9,0-129,6.15-157.67,12.29V8236.29z M8837.64,8897.66c34.81,6.15,86,8.2,149.47,8.2c184.29,0,354.24-67.58,354.24-268.24
		c0-188.38-161.76-266.18-356.29-266.18h-147.43V8897.66z"/>
</g>
</svg>
