<?xml version="1.0" encoding="utf-8"?>
<!-- Generator: Adobe Illustrator 23.0.1, SVG Export Plug-In . SVG Version: 6.00 Build 0)  -->
<svg version="1.1" id="Layer_1" xmlns="http://www.w3.org/2000/svg" xmlns:xlink="http://www.w3.org/1999/xlink" x="0px" y="0px"
	 viewBox="0 0 16383 16383" style="enable-background:new 0 0 16383 16383;" xml:space="preserve">
<style type="text/css">
	.st0{fill:#FFFFFF;}
</style>
<circle cx="8191.01" cy="8191.52" r="3984.67"/>
<g>
	<path class="st0" d="M7689.43,7416.14c89.7-18.88,231.32-33.04,375.3-33.04c205.35,0,337.53,35.41,436.66,115.66
		c82.61,61.37,132.18,155.79,132.18,280.89c0,153.43-101.5,287.96-269.08,349.34v4.71c151.06,37.77,328.09,162.87,328.09,398.91
		c0,136.9-54.29,240.75-134.54,318.66c-110.94,101.49-290.33,148.7-549.97,148.7c-141.62,0-250.2-9.44-318.65-18.89V7416.14z
		 M7894.79,8067.6h186.47c217.15,0,344.61-113.29,344.61-266.72c0-186.47-141.62-259.65-349.33-259.65
		c-94.42,0-148.71,7.09-181.75,14.16V8067.6z M7894.79,8830c40.13,7.09,99.14,9.45,172.31,9.45c212.44,0,408.35-77.9,408.35-309.22
		c0-217.15-186.47-306.84-410.7-306.84h-169.95V8830z"/>
</g>
</svg>
