<?xml version="1.0" encoding="utf-8"?>
<!-- Generator: Adobe Illustrator 23.0.1, SVG Export Plug-In . SVG Version: 6.00 Build 0)  -->
<svg version="1.1" id="Layer_1" xmlns="http://www.w3.org/2000/svg" xmlns:xlink="http://www.w3.org/1999/xlink" x="0px" y="0px"
	 viewBox="0 0 16383 16383" style="enable-background:new 0 0 16383 16383;" xml:space="preserve">
<style type="text/css">
	.st0{fill:#FFFFFF;}
</style>
<g>
	<path d="M12908.6,6642.01c0,1978.18-477.49,3632.36-8594.87,3632.36l0-3632.36L12908.6,6642.01z"/>
	<g>
		<path class="st0" d="M7627.12,7786.84c89.92-18.39,218.67-28.61,341.3-28.61c190.06,0,312.68,34.74,398.52,112.4
			c69.48,61.31,108.32,155.31,108.32,261.59c0,181.89-114.45,302.47-259.55,351.51v6.13c106.27,36.79,169.63,134.89,202.33,277.95
			c44.96,192.1,77.66,324.94,106.27,378.08h-183.93c-22.48-38.83-53.14-157.36-91.97-329.03
			c-40.87-190.06-114.44-261.59-275.9-267.73h-167.58v596.76h-177.8V7786.84z M7804.93,8414.25h181.89
			c190.06,0,310.64-104.23,310.64-261.59c0-177.81-128.75-255.46-316.77-257.51c-85.83,0-147.15,8.17-175.76,16.36V8414.25z"/>
		<path class="st0" d="M8726.63,7786.84c77.66-16.35,200.28-28.61,324.95-28.61c177.8,0,292.25,30.66,378.08,100.14
			c71.53,53.14,114.44,134.89,114.44,243.2c0,132.84-87.88,249.33-232.98,302.47v4.08c130.8,32.7,284.07,141.01,284.07,345.39
			c0,118.53-47,208.45-116.49,275.9c-96.05,87.88-251.37,128.75-476.18,128.75c-122.62,0-216.63-8.17-275.9-16.36V7786.84z
			 M8904.43,8350.9h161.45c188.02,0,298.38-98.09,298.38-230.94c0-161.45-122.62-224.81-302.47-224.81
			c-81.75,0-128.75,6.14-157.36,12.26V8350.9z M8904.43,9011c34.74,6.14,85.83,8.18,149.19,8.18
			c183.93,0,353.56-67.45,353.56-267.73c0-188.02-161.45-265.67-355.6-265.67h-147.14V9011z"/>
	</g>
</g>
</svg>
