<?xml version="1.0" encoding="utf-8"?>
<!-- Generator: Adobe Illustrator 23.0.1, SVG Export Plug-In . SVG Version: 6.00 Build 0)  -->
<svg version="1.1" id="Layer_1" xmlns="http://www.w3.org/2000/svg" xmlns:xlink="http://www.w3.org/1999/xlink" x="0px" y="0px"
	 viewBox="0 0 16383 16383" style="enable-background:new 0 0 16383 16383;" xml:space="preserve">
<style type="text/css">
	.st0{fill:#FFFFFF;}
</style>
<g>
	<circle cx="8528.3" cy="8529.27" r="4264.64"/>
	<g>
		<path class="st0" d="M7376.35,7701.94c111.15-22.73,270.31-35.37,421.88-35.37c234.94,0,386.51,42.94,492.61,138.94
			c85.89,75.79,133.89,191.99,133.89,323.35c0,224.83-141.47,373.88-320.83,434.51v7.57c131.36,45.48,209.67,166.74,250.1,343.57
			c55.58,237.45,95.99,401.66,131.36,467.34h-227.36c-27.79-48-65.68-194.51-113.68-406.72
			c-50.52-234.94-141.47-323.36-341.04-330.94h-207.15v737.66h-219.78V7701.94z M7596.13,8477.49h224.83
			c234.94,0,383.98-128.84,383.98-323.35c0-219.79-159.15-315.78-391.56-318.31c-106.1,0-181.89,10.1-217.25,20.22V8477.49z"/>
		<path class="st0" d="M8705.15,9114.1c98.52,60.63,242.52,111.15,394.09,111.15c224.83,0,356.19-118.74,356.19-290.52
			c0-159.15-90.94-250.1-320.83-338.51c-277.88-98.52-449.67-242.51-449.67-482.5c0-265.26,219.78-462.3,550.72-462.3
			c174.31,0,300.62,40.42,376.4,83.36l-60.63,179.37c-55.58-30.32-169.26-80.83-323.35-80.83c-232.41,0-320.83,138.93-320.83,255.14
			c0,159.15,103.57,237.46,338.51,328.41c287.99,111.15,434.51,250.08,434.51,500.18c0,262.73-194.52,490.09-596.18,490.09
			c-164.21,0-343.57-48-434.51-108.62L8705.15,9114.1z"/>
	</g>
</g>
</svg>
