<?xml version="1.0" encoding="utf-8"?>
<!-- Generator: Adobe Illustrator 23.0.1, SVG Export Plug-In . SVG Version: 6.00 Build 0)  -->
<svg version="1.1" id="Layer_1" xmlns="http://www.w3.org/2000/svg" xmlns:xlink="http://www.w3.org/1999/xlink" x="0px" y="0px"
	 viewBox="0 0 16383 16383" style="enable-background:new 0 0 16383 16383;" xml:space="preserve">
<style type="text/css">
	.st0{fill:#FFFFFF;}
</style>
<g>
	<g>
		
			<rect x="6954.82" y="4478.67" transform="matrix(-1.836970e-16 1 -1 -1.836970e-16 16325.9219 -55.9627)" width="2472.24" height="7312.62"/>
		
			<rect x="6955.42" y="4478.67" transform="matrix(-1 3.874338e-15 -3.874338e-15 -1 16383.0771 16269.958)" width="2472.24" height="7312.62"/>
		<polygon class="st0" points="11294.95,8134.98 10068.69,7427 10068.69,8842.96 		"/>
		<polygon class="st0" points="5023.2,8134.98 6249.46,8842.96 6249.46,7427 		"/>
		<polygon class="st0" points="8191.54,5237.75 7483.56,6464.01 8899.52,6464.01 		"/>
		<polygon class="st0" points="8191.54,11265.2 8899.52,10038.95 7483.56,10038.95 		"/>
	</g>
	<rect x="6825.7" y="9301.61" width="2731.68" height="2602.72"/>
	<rect x="6955.42" y="9371.1" class="st0" width="2472.24" height="2436.65"/>
	<polygon points="8191.54,11265.2 8899.52,10038.95 7483.56,10038.95 	"/>
</g>
</svg>
