<?xml version="1.0" encoding="utf-8"?>
<!-- Generator: Adobe Illustrator 23.0.1, SVG Export Plug-In . SVG Version: 6.00 Build 0)  -->
<svg version="1.1" id="Layer_1" xmlns="http://www.w3.org/2000/svg" xmlns:xlink="http://www.w3.org/1999/xlink" x="0px" y="0px"
	 viewBox="0 0 16383 16383" style="enable-background:new 0 0 16383 16383;" xml:space="preserve">
<style type="text/css">
	.st0{fill:#FFFFFF;}
</style>
<g>
	<g>
		
			<rect x="7011.34" y="4535.19" transform="matrix(-1 -1.224647e-16 1.224647e-16 -1 16494.9258 16383)" width="2472.24" height="7312.62"/>
		
			<rect x="7011.34" y="4535.78" transform="matrix(6.123234e-17 -1 1 6.123234e-17 55.3668 16439.5605)" width="2472.24" height="7312.62"/>
		<polygon class="st0" points="8247.46,11295.5 8955.44,10069.25 7539.48,10069.25 		"/>
		<polygon class="st0" points="8247.46,5023.76 7539.48,6250.02 8955.44,6250.02 		"/>
		<polygon class="st0" points="11144.69,8192.1 9918.43,7484.12 9918.43,8900.08 		"/>
		<polygon class="st0" points="5117.24,8192.1 6343.5,8900.08 6343.5,7484.12 		"/>
	</g>
	<rect x="4478.11" y="6826.26" width="2602.72" height="2731.68"/>
	<rect x="4574.69" y="6955.98" class="st0" width="2436.65" height="2472.24"/>
	<polygon points="5117.24,8192.09 6343.5,8900.08 6343.5,7484.12 	"/>
</g>
</svg>
