<?xml version="1.0" encoding="utf-8"?>
<!-- Generator: Adobe Illustrator 23.0.1, SVG Export Plug-In . SVG Version: 6.00 Build 0)  -->
<svg version="1.1" id="Layer_1" xmlns="http://www.w3.org/2000/svg" xmlns:xlink="http://www.w3.org/1999/xlink" x="0px" y="0px"
	 viewBox="0 0 16383 16383" style="enable-background:new 0 0 16383 16383;" xml:space="preserve">
<style type="text/css">
	.st0{fill:#FFFFFF;stroke:#000000;stroke-width:10;stroke-miterlimit:10;}
</style>
<g>
	<path d="M3871.63,6365.84c0,1988.51,479.99,3651.32,8639.74,3651.32l0-3651.32L3871.63,6365.84z"/>
	<g>
		<path class="st0" d="M4143.57,6480.77c0,1863.33,449.77,3421.47,8095.86,3421.47l0-3421.47L4143.57,6480.77z"/>
		<g>
			<path d="M7328.13,7541.8h167.48v1156.94h554.41v140.53h-721.89V7541.8z"/>
			<path d="M8236.73,7559.13c73.15-15.4,188.65-26.95,306.08-26.95c167.48,0,275.28,28.88,356.13,94.33
				c67.38,50.05,107.8,127.06,107.8,229.08c0,125.13-82.78,234.85-219.45,284.91v3.84c123.2,30.8,267.58,132.83,267.58,325.33
				c0,111.65-44.27,196.35-109.73,259.88c-90.48,82.77-236.78,121.28-448.53,121.28c-115.5,0-204.05-7.7-259.88-15.41V7559.13z
				 M8404.21,8090.43h152.08c177.1,0,281.06-92.4,281.06-217.53c0-152.08-115.5-211.76-284.91-211.76
				c-77,0-121.28,5.78-148.23,11.55V8090.43z M8404.21,8712.22c32.73,5.78,80.85,7.71,140.53,7.71
				c173.25,0,333.03-63.53,333.03-252.18c0-177.1-152.08-250.25-334.96-250.25h-138.6V8712.22z"/>
		</g>
	</g>
</g>
</svg>
