<?xml version="1.0" encoding="utf-8"?>
<!-- Generator: Adobe Illustrator 23.0.1, SVG Export Plug-In . SVG Version: 6.00 Build 0)  -->
<svg version="1.1" id="Layer_1" xmlns="http://www.w3.org/2000/svg" xmlns:xlink="http://www.w3.org/1999/xlink" x="0px" y="0px"
	 viewBox="0 0 16383 16383" style="enable-background:new 0 0 16383 16383;" xml:space="preserve">
<style type="text/css">
	.st0{fill:#FFFFFF;}
</style>
<g>
	<circle cx="8260.98" cy="8191.5" r="4276.53"/>
	<circle class="st0" cx="8260.98" cy="8191.5" r="3984.45"/>
	<g>
		<path d="M7262.61,7397.28h205.34v1418.51h679.75v172.3h-885.09V7397.28z"/>
		<path d="M8348.3,8737.9c92.05,56.64,226.58,103.85,368.2,103.85c210.06,0,332.79-110.94,332.79-271.43
			c0-148.69-84.97-233.67-299.75-316.28c-259.62-92.05-420.13-226.58-420.13-450.8c0-247.83,205.34-431.93,514.54-431.93
			c162.86,0,280.87,37.77,351.67,77.88l-56.64,167.58c-51.92-28.33-158.14-75.52-302.11-75.52c-217.14,0-299.75,129.8-299.75,238.38
			c0,148.69,96.77,221.86,316.27,306.84c269.07,103.85,405.96,233.65,405.96,467.32c0,245.47-181.74,457.89-557.02,457.89
			c-153.42,0-320.99-44.84-405.96-101.49L8348.3,8737.9z"/>
	</g>
</g>
</svg>
