<?xml version="1.0" encoding="utf-8"?>
<!-- Generator: Adobe Illustrator 23.0.1, SVG Export Plug-In . SVG Version: 6.00 Build 0)  -->
<svg version="1.1" id="Layer_1" xmlns="http://www.w3.org/2000/svg" xmlns:xlink="http://www.w3.org/1999/xlink" x="0px" y="0px"
	 viewBox="0 0 16383 16383" style="enable-background:new 0 0 16383 16383;" xml:space="preserve">
<style type="text/css">
	.st0{fill:#FFFFFF;stroke:#000000;stroke-width:10;stroke-miterlimit:10;}
</style>
<g>
	<path d="M10714.99,13005.26c0-4721.78-252.55-8670.17-4545.86-8670.17l0,8670.17L10714.99,13005.26z"/>
	<g>
		<path class="st0" d="M10550.24,12691.03c0-4379.52-234.24-8041.72-4216.36-8041.72l0,8041.73L10550.24,12691.03z"/>
		<g>
			<path d="M7563.73,8163.48c79.77-14.01,193.98-21.79,302.75-21.79c168.6,0,277.37,26.46,353.51,85.62
				c61.64,46.7,96.08,118.3,96.08,199.25c0,138.54-101.52,230.38-230.23,267.74v4.67c94.27,28.02,150.47,102.74,179.48,211.71
				c39.88,146.32,68.89,247.5,94.27,287.98h-163.16c-19.94-29.58-47.13-119.86-81.58-250.62
				c-36.26-144.77-101.52-199.25-244.74-203.93h-148.66v454.54h-157.72V8163.48z M7721.45,8641.38h161.34
				c168.6,0,275.56-79.39,275.56-199.25c0-135.43-114.21-194.58-281-196.14c-76.14,0-130.53,6.23-155.91,12.46V8641.38z"/>
			<path d="M8787.41,8264.67h-371.64v-115.19h904.63v115.19h-373.45v933.99h-159.53V8264.67z"/>
		</g>
	</g>
</g>
</svg>
