<?xml version="1.0" encoding="utf-8"?>
<!-- Generator: Adobe Illustrator 23.0.1, SVG Export Plug-In . SVG Version: 6.00 Build 0)  -->
<svg version="1.1" id="Layer_1" xmlns="http://www.w3.org/2000/svg" xmlns:xlink="http://www.w3.org/1999/xlink" x="0px" y="0px"
	 viewBox="0 0 16383 16383" style="enable-background:new 0 0 16383 16383;" xml:space="preserve">
<style type="text/css">
	.st0{fill:#FFFFFF;}
</style>
<g>
	<path d="M10564.13,11044.32H6727.34c-1327.96,0-2404.48-1076.52-2404.48-2404.48v0c0-1327.96,1076.52-2404.48,2404.48-2404.48
		h3836.78c1327.96,0,2404.48,1076.52,2404.48,2404.48v0C12968.6,9967.79,11892.08,11044.32,10564.13,11044.32z"/>
	<path class="st0" d="M6774.8,6463.72h3741.87c1201.83,0,2176.11,974.28,2176.11,2176.11v0
		c0,1201.83-974.28,2176.11-2176.11,2176.11H6774.8c-1201.83,0-2176.11-974.28-2176.11-2176.11v0
		C4598.69,7438,5572.96,6463.72,6774.8,6463.72z"/>
	<polygon points="10682.43,8639.84 6609.04,7393.48 6609.04,9886.19 	"/>
</g>
</svg>
