<?xml version="1.0" encoding="utf-8"?>
<!-- Generator: Adobe Illustrator 23.0.1, SVG Export Plug-In . SVG Version: 6.00 Build 0)  -->
<svg version="1.1" id="Layer_1" xmlns="http://www.w3.org/2000/svg" xmlns:xlink="http://www.w3.org/1999/xlink" x="0px" y="0px"
	 viewBox="0 0 16383 16383" style="enable-background:new 0 0 16383 16383;" xml:space="preserve">
<style type="text/css">
	.st0{fill:#FFFFFF;}
</style>
<circle cx="8667.18" cy="8554.15" r="4277.08"/>
<circle class="st0" cx="8667.18" cy="8554.15" r="3984.96"/>
<g>
	<path d="M7590.76,7781.07c103.86-21.24,252.58-33.05,394.21-33.05c219.53,0,361.16,40.12,460.31,129.83
		c80.26,70.82,125.11,179.39,125.11,302.15c0,210.09-132.2,349.36-299.79,406.01v7.08c122.75,42.5,195.92,155.8,233.7,321.04
		c51.93,221.88,89.7,375.32,122.75,436.7h-212.45c-25.96-44.85-61.37-181.76-106.22-380.04
		c-47.21-219.53-132.19-302.15-318.68-309.24h-193.56v689.28h-205.37V7781.07z M7796.13,8505.76h210.09
		c219.53,0,358.8-120.39,358.8-302.15c0-205.38-148.72-295.07-365.88-297.44c-99.14,0-169.96,9.44-203.01,18.89V8505.76z"/>
	<path d="M8832.42,9100.62c92.06,56.65,226.61,103.86,368.25,103.86c210.08,0,332.83-110.95,332.83-271.47
		c0-148.71-84.98-233.7-299.79-316.32c-259.66-92.06-420.18-226.61-420.18-450.86c0-247.86,205.37-431.98,514.6-431.98
		c162.88,0,280.9,37.77,351.72,77.89l-56.65,167.6c-51.93-28.33-158.16-75.53-302.15-75.53c-217.17,0-299.79,129.82-299.79,238.41
		c0,148.71,96.78,221.89,316.31,306.88c269.1,103.86,406.01,233.68,406.01,467.38c0,245.5-181.76,457.95-557.09,457.95
		c-153.44,0-321.04-44.85-406.01-101.5L8832.42,9100.62z"/>
</g>
</svg>
