<?xml version="1.0" encoding="utf-8"?>
<!-- Generator: Adobe Illustrator 23.0.1, SVG Export Plug-In . SVG Version: 6.00 Build 0)  -->
<svg version="1.1" id="Layer_1" xmlns="http://www.w3.org/2000/svg" xmlns:xlink="http://www.w3.org/1999/xlink" x="0px" y="0px"
	 viewBox="0 0 16383 16383" style="enable-background:new 0 0 16383 16383;" xml:space="preserve">
<style type="text/css">
	.st0{fill:#FFFFFF;stroke:#000000;stroke-width:10;stroke-miterlimit:10;}
</style>
<g>
	<path d="M12972.6,6365.73c0,1988.43-479.97,3651.18-8639.41,3651.18l0-3651.19L12972.6,6365.73z"/>
	<g>
		<path class="st0" d="M12700.67,6480.65c0,1863.26-449.75,3421.34-8095.55,3421.34l0-3421.34L12700.67,6480.65z"/>
		<g>
			<path d="M7726.02,7558.97c84.7-17.32,205.97-26.95,321.47-26.95c179.02,0,294.52,32.72,375.37,105.87
				c65.45,57.75,102.02,146.29,102.02,246.4c0,171.32-107.8,284.89-244.47,331.09v5.77c100.1,34.66,159.77,127.05,190.57,261.8
				c42.35,180.94,73.15,306.06,100.1,356.11h-173.25c-21.17-36.57-50.05-148.22-86.62-309.92
				c-38.5-179.02-107.8-246.39-259.87-252.18h-157.85v562.09h-167.47V7558.97z M7893.49,8149.93h171.32
				c179.02,0,292.6-98.18,292.6-246.39c0-167.48-121.27-240.62-298.37-242.55c-80.85,0-138.6,7.7-165.55,15.41V8149.93z"/>
			<path d="M8761.65,7558.97c73.15-15.4,188.65-26.95,306.07-26.95c167.47,0,275.27,28.87,356.12,94.32
				c67.37,50.05,107.8,127.05,107.8,229.07c0,125.12-82.77,234.84-219.44,284.89v3.84c123.2,30.8,267.57,132.82,267.57,325.32
				c0,111.65-44.27,196.34-109.72,259.87c-90.47,82.77-236.77,121.27-448.51,121.27c-115.5,0-204.05-7.7-259.87-15.41V7558.97z
				 M8929.13,8090.26h152.07c177.1,0,281.04-92.4,281.04-217.52c0-152.07-115.5-211.75-284.89-211.75
				c-77,0-121.27,5.78-148.22,11.55V8090.26z M8929.13,8712.01c32.72,5.78,80.85,7.71,140.52,7.71
				c173.25,0,333.02-63.53,333.02-252.18c0-177.09-152.07-250.24-334.94-250.24h-138.6V8712.01z"/>
		</g>
	</g>
</g>
</svg>
