<?xml version="1.0" encoding="utf-8"?>
<!-- Generator: Adobe Illustrator 23.0.1, SVG Export Plug-In . SVG Version: 6.00 Build 0)  -->
<svg version="1.1" id="Layer_1" xmlns="http://www.w3.org/2000/svg" xmlns:xlink="http://www.w3.org/1999/xlink" x="0px" y="0px"
	 viewBox="0 0 16383 16383" style="enable-background:new 0 0 16383 16383;" xml:space="preserve">
<style type="text/css">
	.st0{fill:#FFFFFF;}
</style>
<path d="M10109.97,10596.08H6273.03c-1328.01,0-2404.58-1076.57-2404.58-2404.58v0c0-1328.01,1076.57-2404.58,2404.58-2404.58
	h3836.95c1328.01,0,2404.58,1076.57,2404.58,2404.58v0C12514.55,9519.52,11437.99,10596.08,10109.97,10596.08z"/>
<path class="st0" d="M10062.52,10367.71H6320.48c-1201.89,0-2176.21-974.32-2176.21-2176.21v0
	c0-1201.89,974.32-2176.21,2176.21-2176.21h3742.03c1201.89,0,2176.21,974.32,2176.21,2176.21v0
	C12238.72,9393.39,11264.4,10367.71,10062.52,10367.71z"/>
<polygon points="6154.72,8191.5 10228.28,9437.91 10228.28,6945.09 "/>
</svg>
